<svg width="400" height="320" xmlns="http://www.w3.org/2000/svg">
<rect width="100%" height="100%" fill="#262a33"/>
<text x="20" y="35" fill="#73d9ca" font-family="Arial, sans-serif" font-size="18" font-weight="bold">Most Used Languages</text>
<rect x="20" y="55" width="360" height="8" rx="4" fill="#404854"/>
<rect x="20.00" y="55" width="137.41" height="8" fill="#f1e05a"/>
<rect x="157.41" y="55" width="121.60" height="8" fill="#777bb4"/>
<rect x="279.01" y="55" width="53.38" height="8" fill="#1572b6"/>
<rect x="332.38" y="55" width="12.79" height="8" fill="#7f52cc"/>
<rect x="345.17" y="55" width="8.67" height="8" fill="#e34c26"/>
<rect x="353.85" y="55" width="6.65" height="8" fill="#ed752a"/>
<rect x="360.50" y="55" width="5.31" height="8" fill="#cf649a"/>
<rect x="365.81" y="55" width="5.25" height="8" fill="#1d365d"/>
<rect x="371.06" y="55" width="4.51" height="8" fill="#3572a5"/>
<rect x="375.57" y="55" width="4.43" height="8" fill="#00add8"/>
<circle cx="28" cy="76" r="6" fill="#f1e05a"/>
<text x="45" y="80" fill="white" font-family="Arial, sans-serif" font-size="13">JavaScript</text>
<text x="340" y="80" fill="#8b949e" font-family="Arial, sans-serif" font-size="12">38.17%</text>
<circle cx="28" cy="102" r="6" fill="#777bb4"/>
<text x="45" y="106" fill="white" font-family="Arial, sans-serif" font-size="13">PHP</text>
<text x="340" y="106" fill="#8b949e" font-family="Arial, sans-serif" font-size="12">33.78%</text>
<circle cx="28" cy="128" r="6" fill="#1572b6"/>
<text x="45" y="132" fill="white" font-family="Arial, sans-serif" font-size="13">CSS</text>
<text x="340" y="132" fill="#8b949e" font-family="Arial, sans-serif" font-size="12">14.83%</text>
<circle cx="28" cy="154" r="6" fill="#7f52cc"/>
<text x="45" y="158" fill="white" font-family="Arial, sans-serif" font-size="13">Kotlin</text>
<text x="340" y="158" fill="#8b949e" font-family="Arial, sans-serif" font-size="12">3.55%</text>
<circle cx="28" cy="180" r="6" fill="#e34c26"/>
<text x="45" y="184" fill="white" font-family="Arial, sans-serif" font-size="13">HTML</text>
<text x="340" y="184" fill="#8b949e" font-family="Arial, sans-serif" font-size="12">2.41%</text>
<circle cx="28" cy="206" r="6" fill="#ed752a"/>
<text x="45" y="210" fill="white" font-family="Arial, sans-serif" font-size="13">Java</text>
<text x="340" y="210" fill="#8b949e" font-family="Arial, sans-serif" font-size="12">1.85%</text>
<circle cx="28" cy="232" r="6" fill="#cf649a"/>
<text x="45" y="236" fill="white" font-family="Arial, sans-serif" font-size="13">SCSS</text>
<text x="340" y="236" fill="#8b949e" font-family="Arial, sans-serif" font-size="12">1.48%</text>
<circle cx="28" cy="258" r="6" fill="#1d365d"/>
<text x="45" y="262" fill="white" font-family="Arial, sans-serif" font-size="13">Less</text>
<text x="340" y="262" fill="#8b949e" font-family="Arial, sans-serif" font-size="12">1.46%</text>
<circle cx="28" cy="284" r="6" fill="#3572a5"/>
<text x="45" y="288" fill="white" font-family="Arial, sans-serif" font-size="13">Python</text>
<text x="340" y="288" fill="#8b949e" font-family="Arial, sans-serif" font-size="12">1.25%</text>
<circle cx="28" cy="310" r="6" fill="#00add8"/>
<text x="45" y="314" fill="white" font-family="Arial, sans-serif" font-size="13">Go</text>
<text x="340" y="314" fill="#8b949e" font-family="Arial, sans-serif" font-size="12">1.23%</text>
</svg>