<svg width="400" height="320" xmlns="http://www.w3.org/2000/svg">
<rect width="100%" height="100%" fill="#262a33"/>
<text x="20" y="35" fill="#73d9ca" font-family="Arial, sans-serif" font-size="18" font-weight="bold">Most Used Languages</text>
<rect x="20" y="55" width="360" height="8" rx="4" fill="#404854"/>
<rect x="20.00" y="55" width="79.07" height="8" fill="#7f52cc"/>
<rect x="99.07" y="55" width="70.66" height="8" fill="#777bb4"/>
<rect x="169.73" y="55" width="43.97" height="8" fill="#f1e05a"/>
<rect x="213.70" y="55" width="41.12" height="8" fill="#ed752a"/>
<rect x="254.82" y="55" width="40.85" height="8" fill="#3572a5"/>
<rect x="295.66" y="55" width="30.94" height="8" fill="#00add8"/>
<rect x="326.60" y="55" width="24.75" height="8" fill="#e34c26"/>
<rect x="351.35" y="55" width="16.22" height="8" fill="#3178c6"/>
<rect x="367.57" y="55" width="6.24" height="8" fill="#607d8b"/>
<rect x="373.81" y="55" width="6.19" height="8" fill="#1572b6"/>
<circle cx="28" cy="76" r="6" fill="#7f52cc"/>
<text x="45" y="80" fill="white" font-family="Arial, sans-serif" font-size="13">Kotlin</text>
<text x="340" y="80" fill="#8b949e" font-family="Arial, sans-serif" font-size="12">21.96%</text>
<circle cx="28" cy="102" r="6" fill="#777bb4"/>
<text x="45" y="106" fill="white" font-family="Arial, sans-serif" font-size="13">PHP</text>
<text x="340" y="106" fill="#8b949e" font-family="Arial, sans-serif" font-size="12">19.63%</text>
<circle cx="28" cy="128" r="6" fill="#f1e05a"/>
<text x="45" y="132" fill="white" font-family="Arial, sans-serif" font-size="13">JavaScript</text>
<text x="340" y="132" fill="#8b949e" font-family="Arial, sans-serif" font-size="12">12.22%</text>
<circle cx="28" cy="154" r="6" fill="#ed752a"/>
<text x="45" y="158" fill="white" font-family="Arial, sans-serif" font-size="13">Java</text>
<text x="340" y="158" fill="#8b949e" font-family="Arial, sans-serif" font-size="12">11.42%</text>
<circle cx="28" cy="180" r="6" fill="#3572a5"/>
<text x="45" y="184" fill="white" font-family="Arial, sans-serif" font-size="13">Python</text>
<text x="340" y="184" fill="#8b949e" font-family="Arial, sans-serif" font-size="12">11.35%</text>
<circle cx="28" cy="206" r="6" fill="#00add8"/>
<text x="45" y="210" fill="white" font-family="Arial, sans-serif" font-size="13">Go</text>
<text x="340" y="210" fill="#8b949e" font-family="Arial, sans-serif" font-size="12">8.59%</text>
<circle cx="28" cy="232" r="6" fill="#e34c26"/>
<text x="45" y="236" fill="white" font-family="Arial, sans-serif" font-size="13">HTML</text>
<text x="340" y="236" fill="#8b949e" font-family="Arial, sans-serif" font-size="12">6.88%</text>
<circle cx="28" cy="258" r="6" fill="#3178c6"/>
<text x="45" y="262" fill="white" font-family="Arial, sans-serif" font-size="13">TypeScript</text>
<text x="340" y="262" fill="#8b949e" font-family="Arial, sans-serif" font-size="12">4.50%</text>
<circle cx="28" cy="284" r="6" fill="#607d8b"/>
<text x="45" y="288" fill="white" font-family="Arial, sans-serif" font-size="13">Objective-C</text>
<text x="340" y="288" fill="#8b949e" font-family="Arial, sans-serif" font-size="12">1.73%</text>
<circle cx="28" cy="310" r="6" fill="#1572b6"/>
<text x="45" y="314" fill="white" font-family="Arial, sans-serif" font-size="13">CSS</text>
<text x="340" y="314" fill="#8b949e" font-family="Arial, sans-serif" font-size="12">1.72%</text>
</svg>